<svg id="Capa_1" data-name="Capa 1" xmlns="http://www.w3.org/2000/svg" viewBox="0 0 150 150"><defs><style>.cls-1{fill:#68983f;}</style></defs><title>admira-icon_xl_3_green</title><path class="cls-1" d="M115.38,52.57c-.52,0-1,0-1.53.07a44.78,44.78,0,0,0-77.7,0c-.51,0-1-.07-1.53-.07A31.41,31.41,0,1,0,49.3,111.72a44.6,44.6,0,0,0,51.4,0,31.4,31.4,0,1,0,14.68-59.15Zm0,53.84a22.39,22.39,0,0,1-15.13-5.93,36,36,0,0,1-50.5,0,22.41,22.41,0,1,1-8.38-37.9,35.82,35.82,0,0,1,63.1-8,35.69,35.69,0,0,1,4.16,8,22.53,22.53,0,0,1,6.75-1,22.44,22.44,0,1,1,0,44.87Z"/></svg>